<svg width="30" height="30" viewBox="0 0 30 30" fill="none" xmlns="http://www.w3.org/2000/svg">
<g clip-path="url(#clip0_736_3736)">
<path d="M20.5624 18.8176C23.3757 18.7679 23.9948 14.8978 21.3401 13.9761L18.2749 17.3003C18.6574 18.2009 19.5591 18.8176 20.5624 18.8176Z" fill="white"/>
<path d="M29.6416 13.7949C29.2475 11.4307 28.1398 9.60589 26.42 8.46646C25.6189 9.33595 23.4119 11.7287 22.5788 12.6324C23.919 13.3588 24.7769 14.7653 24.7769 16.3346C24.7863 19.9716 20.3974 21.9031 17.7229 19.4471C17.4678 20.0113 17.1102 20.5306 16.6596 20.9811C14.8737 22.9173 9.34184 23.3853 6.98049 23.3165C6.91149 20.9493 7.38145 15.4201 9.31594 13.6374C10.303 12.6509 11.5907 12.1449 12.8871 12.1201C14.3057 10.8076 16.273 8.98708 17.6859 7.67953C15.7234 8.19669 12.8488 9.56585 11.9721 8.27319C11.5617 7.30482 13.4271 5.05464 11.9553 3.16624C10.7491 1.65175 8.04965 1.93624 6.52414 3.0122C-0.90344 8.14044 -1.89662 19.4076 4.58757 25.6756C12.5254 33.6744 26.3722 30.0506 29.4143 19.2111C29.5794 18.5289 30.0522 16.2925 29.6416 13.7949Z" fill="white"/>
<path d="M16.6596 13.6376C17.1419 14.1199 17.5175 14.6801 17.7748 15.2899C18.7573 14.2259 23.9445 8.59805 24.8058 7.6647L29.4114 2.66967C29.9145 2.1239 29.9278 1.3162 29.442 0.829853C28.9551 0.343505 28.1462 0.357351 27.6005 0.862161L20.8649 7.09585C19.4023 8.44891 16.4934 11.142 15.001 12.523C15.6044 12.7757 16.1693 13.1472 16.6596 13.6376Z" fill="white"/>
<path d="M14.5122 14.2C13.1981 13.5605 11.6057 13.798 10.54 14.86C9.43937 15.8331 8.81444 19.5367 8.75098 21.5454C10.7655 21.4799 14.4601 20.8586 15.4358 19.7563C16.0901 19.1021 16.4501 18.2327 16.4501 17.3084C16.4499 16.3829 16.0895 15.5134 15.4358 14.8605V14.86C15.1589 14.5825 14.8462 14.3626 14.5122 14.2Z" fill="white"/>
</g>
<defs>
<clipPath id="clip0_736_3736">
<rect width="29.5302" height="29.5302" fill="white" transform="translate(0.277832 0.474121)"/>
</clipPath>
</defs>
</svg>
