<svg width="19" height="21" viewBox="0 0 19 21" fill="none" xmlns="http://www.w3.org/2000/svg">
<path fill-rule="evenodd" clip-rule="evenodd" d="M13.7271 1.6531L13.728 2.37149C16.3679 2.57838 18.1117 4.37723 18.1146 7.13585L18.125 15.2106C18.1288 18.2182 16.2392 20.0688 13.2105 20.0736L5.81222 20.0832C2.80239 20.087 0.889199 18.1924 0.885414 15.1761L0.875006 7.19619C0.871222 4.41938 2.55355 2.62532 5.19341 2.38298L5.19247 1.66459C5.19152 1.24313 5.50376 0.926085 5.92009 0.926085C6.33641 0.925127 6.64865 1.24122 6.6496 1.66267L6.65055 2.33317L12.2709 2.32551L12.27 1.65501C12.269 1.23356 12.5813 0.917464 12.9976 0.916506C13.4044 0.915548 13.7261 1.23164 13.7271 1.6531ZM2.3331 7.49211L16.6584 7.47296V7.13771C16.6177 5.07832 15.5845 3.99786 13.7299 3.83694L13.7309 4.57449C13.7309 4.98637 13.4101 5.313 13.0033 5.313C12.587 5.31395 12.2738 4.98828 12.2738 4.57641L12.2728 3.80055L6.65245 3.80821L6.6534 4.58311C6.6534 4.99595 6.3421 5.32162 5.92578 5.32162C5.50946 5.32257 5.19627 4.99786 5.19627 4.58503L5.19532 3.84748C3.35025 4.03235 2.32931 5.11664 2.33215 7.19422L2.3331 7.49211ZM12.605 11.8455V11.8561C12.6144 12.2967 12.974 12.631 13.4102 12.6214C13.836 12.6109 14.1757 12.2459 14.1662 11.8053C14.1463 11.3838 13.8048 11.04 13.3799 11.0409C12.9447 11.0505 12.604 11.4049 12.605 11.8455ZM13.3864 16.1463C12.9512 16.1367 12.6002 15.7737 12.5992 15.3331C12.5897 14.8925 12.9389 14.5275 13.3741 14.517H13.3836C13.8283 14.517 14.1888 14.88 14.1888 15.3302C14.1897 15.7804 13.8302 16.1453 13.3864 16.1463ZM8.70661 11.861C8.72553 12.3016 9.08603 12.6454 9.52128 12.6263C9.94706 12.6062 10.2867 12.2422 10.2678 11.8016C10.2574 11.3705 9.90732 11.0353 9.48154 11.0363C9.04629 11.0554 8.70566 11.4204 8.70661 11.861ZM9.52514 16.1033C9.08989 16.1224 8.73034 15.7786 8.71047 15.338C8.71047 14.8974 9.05015 14.5334 9.4854 14.5133C9.91118 14.5123 10.2622 14.8475 10.2717 15.2776C10.2916 15.7192 9.95092 16.0832 9.52514 16.1033ZM4.80835 11.8944C4.82727 12.335 5.18777 12.6799 5.62302 12.6597C6.0488 12.6406 6.38849 12.2757 6.36862 11.835C6.35915 11.404 6.00906 11.0688 5.58233 11.0697C5.14709 11.0889 4.8074 11.4538 4.80835 11.8944ZM5.62676 16.108C5.19152 16.1281 4.83196 15.7832 4.81209 15.3426C4.81115 14.902 5.15178 14.5371 5.58702 14.5179C6.01281 14.517 6.36384 14.8522 6.37331 15.2832C6.39318 15.7239 6.05349 16.0888 5.62676 16.108Z" fill="#2C3550"/>
</svg>
