<svg width="218" height="131" viewBox="0 0 218 131" fill="none" xmlns="http://www.w3.org/2000/svg">
<mask id="mask0_736_2516" style="mask-type:alpha" maskUnits="userSpaceOnUse" x="0" y="0" width="218" height="131">
<rect width="218" height="131" rx="10" fill="#BDACAC"/>
</mask>
<g mask="url(#mask0_736_2516)">
<g clip-path="url(#clip0_736_2516)">
<path d="M141.747 65.7585L111.706 105.964L126.406 114.725L141.747 65.7585Z" fill="#00B6AA"/>
<path d="M141.747 65.7585L111.706 138.188C111.706 138.188 162.609 156.347 191.138 141.261L181.389 67.1072L141.747 65.7585Z" fill="#171766"/>
<path d="M174.198 48.2065L156.53 50.3837L155.514 61.8716C161.154 60.7348 166.804 59.6414 172.483 58.6396L174.198 48.2065Z" fill="#171766"/>
<path d="M175.31 66.7028L173.942 80.9796L160.793 94.7072L158.649 96.947L158.067 95.4779L152.046 80.3341L152.518 65.0073H169.627L175.31 66.7028Z" fill="white"/>
<path d="M155.519 61.8717L155.018 67.5362L162.522 75.3778L170.932 68.1624L172.493 58.6445C166.804 59.6416 161.154 60.735 155.519 61.8717Z" fill="#F2583E"/>
<path d="M184.588 37.6063C186.45 26.2907 178.787 15.6078 167.471 13.7454C156.156 11.8829 145.473 19.5463 143.611 30.8619C141.748 42.1775 149.411 52.8604 160.727 54.7228C172.043 56.5852 182.726 48.9219 184.588 37.6063Z" fill="#F2583E"/>
<path d="M173.137 45.1548C173.554 42.5896 171.813 40.1715 169.248 39.7538C166.683 39.3362 164.265 41.0771 163.847 43.6423C163.429 46.2076 165.17 48.6257 167.736 49.0434C170.301 49.461 172.719 47.7201 173.137 45.1548Z" fill="#F6EF97"/>
<path d="M158.442 14.4507C156.4 14.6048 154.353 14.759 152.306 14.9131C151.757 14.9564 151.193 14.9998 150.697 15.2358C150.201 15.4718 149.777 15.9535 149.772 16.5026C149.767 17.0999 150.225 17.5912 150.702 17.9476C152.123 19.0169 153.987 19.489 155.745 19.2192C155.066 20.1489 153.597 20.7172 153.717 21.8636C153.809 22.7403 154.825 23.1786 155.697 23.3086C157.214 23.535 158.784 23.3713 160.22 22.8318C159.984 23.7277 159.762 24.7296 160.215 25.534C160.663 26.3384 161.645 26.6852 162.565 26.8008C166.067 27.2391 169.376 25.3076 172.411 23.5061C172.796 23.2749 173.316 23.0534 173.658 23.3424C173.856 23.5061 173.909 23.7759 173.947 24.0311C174.497 27.6341 173.658 31.2948 173.682 34.9362C173.692 36.7473 174 38.7222 175.335 39.9456C176.332 40.8608 177.738 41.1883 179.087 41.3136C180.46 41.4388 181.909 41.3762 183.109 40.697C183.894 40.2539 184.52 39.5699 185.055 38.8426C186.813 36.4438 187.675 33.3033 186.933 30.4229C186.688 29.474 186.264 28.5444 185.565 27.8556" fill="#00B6AA"/>
<path d="M182.646 50.3834C186.953 50.3834 190.444 46.892 190.444 42.5851C190.444 38.2783 186.953 34.7869 182.646 34.7869C178.339 34.7869 174.848 38.2783 174.848 42.5851C174.848 46.892 178.339 50.3834 182.646 50.3834Z" fill="#F2583E"/>
<path d="M189.491 14.34L188.296 19.1663L186.283 27.2729L158.394 14.34L162.3 9.85078L167.454 3.92139C167.454 3.92139 181.5 4.94253 189.491 14.34Z" fill="#171766"/>
<path d="M188.296 19.1661L186.283 27.2727L158.394 14.3398L162.3 9.85059L188.296 19.1661Z" fill="#00B6AA"/>
<path d="M151.733 8.85864L196.711 29.9848C196.711 29.9848 192.814 38.0095 167.454 24.1999C150.052 14.7254 151.733 8.85864 151.733 8.85864Z" fill="#171766"/>
<path d="M146.42 25.6785C146.42 25.6785 143.963 31.078 147.744 32.3015C151.525 33.5249 154.589 28.7949 154.589 28.7949C154.589 28.7949 150.023 32.3111 147.653 30.3073C145.9 28.8286 146.42 25.6785 146.42 25.6785Z" fill="#171766"/>
<path d="M160.966 31.9692C160.966 31.9692 158.51 37.3688 162.291 38.5922C166.072 39.8157 169.136 35.0857 169.136 35.0857C169.136 35.0857 164.569 38.6019 162.199 36.5981C160.441 35.1194 160.966 31.9692 160.966 31.9692Z" fill="#171766"/>
<path d="M158.847 26.4011L149.772 34.6811L154.31 38.0961L159.767 27.2729L158.847 26.4011Z" fill="#FFB459"/>
<path d="M178.697 45.7209L178.167 40.2684L186.712 37.3735V38.7945L179.617 41.0535L181.062 46.2459L178.697 45.7209Z" fill="#171766"/>
<path d="M162.522 75.3726L157.778 79.6114L151.174 64.2364L155.519 61.8713L162.522 75.3726Z" fill="#00B6AA"/>
<path d="M165.662 80.9793L162.522 75.3727L171.77 63.0129L176.601 66.7893L165.662 80.9793Z" fill="#00B6AA"/>
<path d="M163.678 75.3726L160.793 94.7069L158.649 96.9467L158.067 95.4776L161.718 75.3726H163.678Z" fill="#00B6AA"/>
<path d="M150.278 47.927C150.278 47.927 140.331 49.0493 135.857 53.2206C134.123 54.8438 132.991 61.2789 131.724 70.7005C131.719 70.7149 131.719 70.7294 131.714 70.7438C129.715 85.5793 127.355 107.784 121.7 130.254C112.438 167.03 89.4379 180.189 89.4379 180.189C73.5476 179.424 61.814 175.724 53.2065 170.32C30.1922 155.875 29.542 129.257 31.6276 114.041C28.5449 107.674 29.6142 98.4303 29.8791 98.3581C42.9469 94.9334 56.2796 101.513 66.2839 108.883C69.7857 111.464 72.8828 114.143 75.4116 116.517C79.424 120.289 82.0298 123.304 82.6126 123.983V123.988C82.6945 124.084 82.7331 124.132 82.7331 124.132L74.9155 132.046L78.581 140.288C78.581 140.288 123.805 53.6541 131.729 47.402C143.944 42.5852 147.927 43.6401 147.927 43.6401L150.278 47.927Z" fill="#F6EF97"/>
<path d="M118.587 78.4449C120.514 76.5187 120.514 73.3958 118.587 71.4696C116.661 69.5434 113.538 69.5434 111.612 71.4696C109.686 73.3958 109.686 76.5188 111.612 78.4449C113.538 80.3711 116.661 80.3711 118.587 78.4449Z" fill="#FFB459"/>
<path d="M125.283 67.901C127.209 65.9748 127.209 62.8519 125.283 60.9257C123.357 58.9995 120.234 58.9995 118.308 60.9257C116.382 62.8519 116.382 65.9748 118.308 67.901C120.234 69.8272 123.357 69.8272 125.283 67.901Z" fill="#FFB459"/>
<path d="M113.32 87.1407C113.943 84.4888 112.298 81.834 109.646 81.211C106.994 80.588 104.34 82.2328 103.717 84.8846C103.094 87.5365 104.738 90.1913 107.39 90.8143C110.042 91.4373 112.697 89.7926 113.32 87.1407Z" fill="#FFB459"/>
<path d="M106.747 98.2222C107.375 95.5717 105.736 92.9134 103.086 92.2847C100.435 91.656 97.7771 93.295 97.1484 95.9455C96.5197 98.596 98.1587 101.254 100.809 101.883C103.46 102.512 106.118 100.873 106.747 98.2222Z" fill="#FFB459"/>
<path d="M100.174 109.283C100.802 106.632 99.1634 103.974 96.5129 103.345C93.8624 102.716 91.2041 104.355 90.5754 107.006C89.9467 109.656 91.5857 112.315 94.2362 112.943C96.8867 113.572 99.545 111.933 100.174 109.283Z" fill="#FFB459"/>
<path d="M93.5931 120.322C94.2161 117.67 92.5713 115.015 89.9195 114.392C87.2676 113.769 84.6128 115.414 83.9898 118.066C83.3668 120.717 85.0116 123.372 87.6634 123.995C90.3153 124.618 92.9701 122.973 93.5931 120.322Z" fill="#FFB459"/>
<path d="M123.141 55.0363L136.016 60.4214L138.809 57.7289L125.101 52.0259" fill="#F2583E"/>
<path d="M131.714 70.7439C129.715 85.5794 127.355 107.784 121.7 130.255C112.438 167.03 89.4378 180.189 89.4378 180.189C89.4378 180.189 76.2207 176.1 71.009 170.32L88.0699 173.09C88.0699 173.09 126.792 100.617 131.714 70.7439Z" fill="#FFB459"/>
<path d="M66.284 108.883C61.6455 114.59 57.6572 120.814 54.7672 127.567C50.8464 136.728 50.0709 148.057 50.7212 157.999C50.9957 162.189 51.8435 166.346 53.2114 170.32C30.1971 155.875 29.5468 129.257 31.6325 114.041C28.545 107.674 29.6191 98.4303 29.8792 98.358C42.9518 94.9333 56.2797 101.513 66.284 108.883Z" fill="#FFB459"/>
<path d="M82.6125 123.983L74.9154 132.046C37.6821 134.021 33.6794 105.838 33.6794 105.838L57.1321 107.871L75.4067 116.517C79.4239 120.289 82.0297 123.304 82.6125 123.983Z" fill="#FFB459"/>
<path d="M82.7331 124.132C43.5249 135.986 29.8792 98.3581 29.8792 98.3581C55.8028 91.5617 82.7331 124.132 82.7331 124.132Z" fill="#171766"/>
<path d="M146.338 39.6904L149.117 50.4751L151.627 49.5069L149.95 39.6904H146.338Z" fill="#171766"/>
<path d="M152.45 40.49L148.337 42.171L149.686 46.482L154.276 47.3298L152.45 40.49Z" fill="#171766"/>
<path d="M45.8514 58.3216C31.2422 79.5682 48.3657 101.629 60.5809 120.39C58.8228 120.212 57.0695 119.889 55.5378 119.316C49.7096 117.153 21.0982 92.8238 25.6259 70.0214C27.2588 61.7704 31.3145 54.2611 34.2527 46.3809C37.1909 38.4959 38.4914 29.1081 33.8529 22.0902C32.1719 19.5421 29.8358 17.5143 27.5767 15.4672C21.6811 10.1351 16.0021 4.31647 12.4907 -2.81229C8.97934 -9.94586 7.89077 -18.64 11.2817 -25.8314L25.9728 -26H54.7623C51.2461 -19.0976 51.0631 -10.7454 55.9665 -2.85082C61.2649 4.85594 67.5266 11.1177 66.5633 20.7511C65.1183 35.683 54.0398 45.7981 45.8514 58.3216Z" fill="#00B6AA"/>
<path d="M130.144 6.30095C116.657 11.1177 97.3904 12.081 95.9454 29.4212C94.9821 40.9814 95.9454 54.4682 84.867 61.2116C76.1968 66.0283 66.0817 68.9184 61.7467 78.0702C56.1593 91.3354 58.1727 107.635 65.3833 120.558C63.9094 120.592 62.2428 120.558 60.581 120.39C48.3658 101.629 31.2424 79.5682 45.8515 58.3216C54.0399 45.7981 65.1184 35.683 66.5634 20.7511C67.5267 11.1177 61.265 4.85594 55.9666 -2.85082C51.0632 -10.7454 51.2462 -19.0976 54.7624 -26H148.361C149.132 -12.5902 142.899 1.66245 130.144 6.30095Z" fill="#7BD6AA"/>
<path d="M205.839 -26C203.522 -18.7123 200.839 -11.4824 196.591 -5.13877C191.938 1.80214 185.161 7.65927 177.03 9.60523C172.04 10.7998 166.828 10.4819 161.713 10.8865C156.598 11.2911 151.222 12.5964 147.667 16.2957C143.669 20.4477 142.745 26.7769 139.036 31.1842C131.276 40.4226 115.467 37.4363 106.345 45.3309C96.6437 53.7216 98.055 71.2882 86.991 77.786C82.6512 80.334 63.7503 84.6787 63.3168 97.2744C62.9604 107.688 70.4504 120.183 70.4504 120.183C70.4504 120.183 68.2829 120.491 65.3832 120.558C58.1726 107.635 56.1592 91.3354 61.7466 78.0702C66.0816 68.9184 76.1967 66.0283 84.8668 61.2116C95.9453 54.4682 94.982 40.9814 95.9453 29.4212C97.3903 12.081 116.657 11.1177 130.144 6.30095C142.899 1.66245 149.132 -12.5902 148.361 -26H205.839Z" fill="#00B6AA"/>
<path d="M208.628 132.143C206.802 142.528 198.469 152.368 186.187 159.025C171.621 166.92 151.501 170.335 130.11 164.868C126.19 163.866 122.225 162.565 118.247 160.937L134.205 117.119C137.21 117.765 140.38 118.391 143.583 118.935C158.206 121.426 173.625 122.249 178.167 116.026C187.497 103.252 178.167 79.6165 178.167 79.6165C178.167 79.6165 173.87 74.3518 181.389 67.1074C181.389 67.1074 205.921 94.5676 208.873 120.727C209.312 124.59 209.283 128.429 208.628 132.143Z" fill="#00B6AA"/>
<path d="M125.693 114.273L123.141 97.4239L120.034 96.0608L117.751 106.87L103.527 95.6177L101.147 99.0279L108.522 109.312L97.0146 105.68L94.3317 111.253L107.78 119.2L89.8811 118.94L88.7925 123.314L127.615 138.872L135.394 123.314L125.693 114.273Z" fill="#F1573D"/>
<path d="M89.8811 122.736L90.435 119.2C90.435 119.2 93.7297 120.193 93.4021 121.98C93.0794 123.767 89.8811 122.736 89.8811 122.736Z" fill="#171766"/>
<path d="M96.2632 110.395L97.8431 106.932C97.8431 106.932 101.851 109.369 101.359 111.046C100.878 112.722 96.2632 110.395 96.2632 110.395Z" fill="#171766"/>
<path d="M102.443 99.1915L104.066 97.0818C104.066 97.0818 108.074 100.165 106.663 101.547C105.261 102.924 102.443 99.1915 102.443 99.1915Z" fill="#171766"/>
<path d="M120.631 97.6746L123.227 98.4886C123.227 98.4886 123.878 103.305 122.471 102.983C121.065 102.655 120.631 97.6746 120.631 97.6746Z" fill="#171766"/>
<path d="M145.635 111.932L143.583 118.935L130.11 164.868L127.697 173.09L116.267 166.366L118.247 160.937L134.205 117.119L137.051 109.312L145.635 111.932Z" fill="white"/>
<path d="M208.628 132.143C206.802 142.528 198.469 152.368 186.187 159.025C183.542 153.168 183.041 146.338 184.958 140.191C187.805 131.049 195.825 123.882 205.068 121.382C206.287 121.05 207.583 120.814 208.873 120.727C209.312 124.59 209.283 128.429 208.628 132.143Z" fill="#FFB459"/>
<path d="M101.947 88.2045L90.4397 80.7193L105.718 53.1436L116.267 55.0365L101.947 88.2045Z" fill="white"/>
<path d="M105.025 58.3505L121.931 56.2263L124.089 58.8466L114.311 63.9812L129.002 74.6118L126.368 77.8293L114.47 73.5232L121.089 83.6142L116.46 87.7084L105.155 76.9238L110.27 94.081L106.354 96.3159L94.4087 80.8061" fill="#F1573D"/>
<path d="M106.614 95.1116L109.866 93.6136C109.866 93.6136 108.016 90.7139 106.388 91.5135C104.755 92.3131 106.614 95.1116 106.614 95.1116Z" fill="#171766"/>
<path d="M116.758 85.618L119.663 83.1567C119.663 83.1567 116.228 79.9632 114.75 80.888C113.266 81.8128 116.758 85.618 116.758 85.618Z" fill="#171766"/>
<path d="M125.862 76.6204L127.451 74.4818C127.451 74.4818 123.396 71.4665 122.447 73.1957C121.503 74.9297 125.862 76.6204 125.862 76.6204Z" fill="#171766"/>
<path d="M122.374 58.707L120.886 56.4287C120.886 56.4287 116.074 57.1127 116.768 58.3795C117.466 59.6463 122.374 58.707 122.374 58.707Z" fill="#171766"/>
<path d="M81.741 105.964L101.075 92.1254L96.7788 86.1575L81.741 105.964Z" fill="#00B6AA"/>
<path d="M73.0999 101.547L83.2294 69.4915L76.2885 70.7438L73.0999 101.547Z" fill="#F1573D"/>
<path d="M25.0721 96.0607L2.10596 82.7088L8.9168 72.9597L25.0721 96.0607Z" fill="#00B6AA"/>
<path d="M18.7912 70.7439L3.5896 37.3736L16.8115 30.3315L18.7912 70.7439Z" fill="#F6EF97"/>
<path d="M19.9471 101.547L-0.702148 110.795L2.92966 117.076L19.9471 101.547Z" fill="#F1573D"/>
<path d="M200.117 44.3964L209.167 56.838L223.863 40.49L213.31 72.9595L199.361 56.7272L183.802 64.4147L200.117 44.3964Z" fill="#FFB459"/>
<path d="M192.954 72.9597C192.954 72.9597 217.457 96.4894 217.833 94.5001C218.208 92.5108 223.863 86.1575 223.863 86.1575L192.954 72.9597Z" fill="#171766"/>
<path d="M203.831 39.6904L225.747 15.5972L218.584 9.85083L203.831 39.6904Z" fill="#171766"/>
<path d="M210.709 106.484C213.209 106.484 215.236 104.457 215.236 101.956C215.236 99.4558 213.209 97.4287 210.709 97.4287C208.208 97.4287 206.181 99.4558 206.181 101.956C206.181 104.457 208.208 106.484 210.709 106.484Z" fill="#7BD6AA"/>
<path d="M202.583 6.24794C204.57 6.24794 206.181 4.63702 206.181 2.64985C206.181 0.662679 204.57 -0.948242 202.583 -0.948242C200.596 -0.948242 198.985 0.662679 198.985 2.64985C198.985 4.63702 200.596 6.24794 202.583 6.24794Z" fill="#FFB459"/>
<path d="M13.4523 15.0073C14.0868 12.32 12.4227 9.62715 9.73543 8.99261C7.04814 8.35806 4.35527 10.0221 3.72072 12.7094C3.08618 15.3967 4.75025 18.0896 7.43754 18.7241C10.1248 19.3587 12.8177 17.6946 13.4523 15.0073Z" fill="#FFB459"/>
<path d="M108.565 48.2064C110.696 48.2064 112.423 46.479 112.423 44.3482C112.423 42.2174 110.696 40.49 108.565 40.49C106.434 40.49 104.707 42.2174 104.707 44.3482C104.707 46.479 106.434 48.2064 108.565 48.2064Z" fill="#FFB459"/>
<path d="M21.5075 122.188C22.6623 119.456 21.3835 116.305 18.6514 115.151C15.9193 113.996 12.7685 115.275 11.6137 118.007C10.459 120.739 11.7378 123.89 14.4698 125.044C17.2019 126.199 20.3528 124.92 21.5075 122.188Z" fill="#171766"/>
</g>
</g>
<defs>
<clipPath id="clip0_736_2516">
<rect width="228.814" height="241" fill="white" transform="translate(-3.06714 -26)"/>
</clipPath>
</defs>
</svg>
