<svg width="60" height="61" viewBox="0 0 60 61" fill="none" xmlns="http://www.w3.org/2000/svg">
<path d="M30.0012 11.6011C34.2998 11.535 38.4569 13.1364 41.6002 16.0693L50.0665 7.79059C44.6347 2.70086 37.4444 -0.090062 30.0012 0.00221752C24.4398 0.000932478 18.9877 1.54673 14.2546 4.46673C9.52152 7.38674 5.69403 11.5658 3.2002 16.5366L12.9012 24.0683C14.0873 20.4616 16.3758 17.3182 19.4438 15.0814C22.5117 12.8446 26.2044 11.6273 30.0012 11.6011Z" fill="#E43E2B"/>
<path d="M58.8 30.6685C58.8353 28.6062 58.6223 26.5472 58.1654 24.5359H30V35.6704H46.5346C46.221 37.6225 45.5157 39.491 44.4613 41.1636C43.4069 42.8361 42.0251 44.2782 40.399 45.403L49.8663 52.7356C52.8169 49.8869 55.1372 46.4512 56.6775 42.6502C58.2177 38.8493 58.9438 34.7675 58.8087 30.6685H58.8Z" fill="#3B7DED"/>
<path d="M12.9356 35.9345C12.2797 34.0246 11.9415 32.0202 11.9346 30.0009C11.9466 27.9848 12.2726 25.983 12.901 24.0673L3.20003 16.5356C1.09597 20.7129 0 25.3251 0 30.0023C0 34.6796 1.09597 39.2917 3.20003 43.469L12.9356 35.9345Z" fill="#F0B501"/>
<path d="M30.0002 60.0016C37.3078 60.2083 44.4169 57.608 49.8666 52.7353L40.3993 45.4027C37.3296 47.4606 33.6943 48.5093 30.0002 48.4027C26.2068 48.3802 22.5167 47.1637 19.4535 44.9259C16.3904 42.6881 14.1096 39.5426 12.9348 35.9355L3.23389 43.4701C5.721 48.4387 9.54222 52.6168 14.2696 55.5365C18.997 58.4563 24.4439 60.0024 30.0002 60.0016Z" fill="#2BA24C"/>
</svg>
