<svg width="271" height="460" viewBox="0 0 271 460" fill="none" xmlns="http://www.w3.org/2000/svg">
<rect x="16" y="16" width="241" height="522"/>
<mask id="mask0_736_3992" style="mask-type:luminance" maskUnits="userSpaceOnUse" x="0" y="0" width="271" height="539">
<path fill-rule="evenodd" clip-rule="evenodd" d="M255.565 268.803C255.565 195.001 255.565 121.199 255.564 47.3974C255.564 47.1255 255.565 46.8536 255.565 46.5816C255.568 45.5251 255.571 44.4682 255.531 43.4131C254.973 28.4618 242.915 16.663 227.97 16.5168C221.848 16.4569 215.726 16.4752 209.603 16.4936H209.603C208.088 16.4981 206.573 16.5027 205.058 16.5061C201.903 16.513 200.51 17.8008 200.209 20.9157C200.147 21.5609 200.099 22.2078 200.051 22.8545L200.051 22.8555L200.051 22.8561C199.977 23.8648 199.903 24.8733 199.773 25.8746C199.321 29.3547 197.398 31.8241 194.321 33.4085C192.664 34.2615 190.868 34.4486 189.011 34.4476C160.127 34.4319 131.243 34.4326 102.36 34.4332C95.8784 34.4333 89.3967 34.4335 82.915 34.4334C82.8453 34.4334 82.7756 34.4336 82.7059 34.434C82.6574 34.4342 82.609 34.4345 82.5606 34.4347C82.2636 34.4364 81.9666 34.4381 81.6698 34.4292C76.7406 34.2802 72.7925 30.8519 72.0574 25.9887C71.8906 24.8848 71.8106 23.7679 71.7305 22.6507L71.7305 22.6505C71.6859 22.0282 71.6413 21.4058 71.5817 20.7855C71.2813 17.6578 70.0813 16.517 66.9509 16.508C65.0343 16.5025 63.1175 16.4908 61.2006 16.4791L61.2004 16.4791C55.4789 16.4443 49.757 16.4094 44.039 16.5372C33.9127 16.7636 26.1022 21.3242 20.6359 29.8282C17.435 34.8075 16.4101 40.3615 16.4108 46.2155C16.427 171.5 16.4267 296.784 16.4263 422.068L16.4262 490.771C16.4262 490.999 16.4184 491.228 16.4106 491.457C16.3928 491.979 16.375 492.501 16.4494 493.01C16.5524 493.713 16.6403 494.422 16.7283 495.13C16.968 497.061 17.208 498.995 17.7526 500.836C21.2292 512.594 32.0187 520.561 44.4171 520.58C62.6972 520.606 80.9773 520.601 99.2574 520.596C106.63 520.594 114.002 520.592 121.374 520.592C131.294 520.592 141.215 520.598 151.135 520.604C176.58 520.619 202.025 520.635 227.469 520.548C239.5 520.508 248.082 514.628 253.258 503.82C255.197 499.771 255.584 495.407 255.582 490.957C255.562 430.595 255.563 370.234 255.565 309.872C255.565 296.183 255.565 282.493 255.565 268.803ZM267.496 124.824C270.377 125.533 270.48 125.64 270.482 128.383C270.488 146.068 270.487 163.752 270.483 181.436C270.482 184.291 270.404 184.376 267.496 185.217V188.627C267.496 210.492 267.495 232.357 267.495 254.223C267.493 334.892 267.491 415.561 267.514 496.23C267.517 505.786 264.826 514.409 259.021 521.968C251.919 531.215 242.56 536.709 230.932 538.17C229.127 538.397 227.298 538.549 225.48 538.55C165.205 538.57 104.93 538.576 44.6544 538.561C24.8642 538.556 8.10778 525.363 3.66199 506.151C2.88387 502.789 2.57601 499.252 2.55285 495.792C2.47025 483.59 2.48208 471.387 2.49391 459.185C2.4981 454.865 2.50229 450.546 2.50229 446.227V445.994C2.50229 364.875 2.50229 283.755 2.50204 202.635C2.50204 202.396 2.5082 202.155 2.51436 201.915C2.52955 201.322 2.54475 200.729 2.46766 200.148C2.40041 199.642 2.18496 198.966 1.80711 198.726C0.634455 197.98 0.503938 196.913 0.504934 195.704C0.514897 184.496 0.514648 173.287 0.505183 162.079C0.504436 160.872 0.647656 159.822 1.79267 159.043C2.21161 158.758 2.42931 157.961 2.46891 157.379C2.52629 156.536 2.51724 155.689 2.50819 154.842C2.50215 154.276 2.49611 153.711 2.50976 153.147C2.53666 152.041 2.376 151.215 1.35504 150.393C0.706687 149.871 0.54927 148.47 0.543541 147.46C0.500023 139.69 0.503784 131.919 0.507545 124.148C0.508606 121.956 0.509667 119.764 0.509667 117.572C0.509667 117.263 0.511461 116.954 0.513255 116.646C0.517251 115.958 0.521246 115.271 0.505433 114.583C0.474049 113.217 0.533578 111.953 1.94062 111.127C2.29605 110.918 2.47215 110.149 2.47613 109.636C2.51474 104.655 2.52246 99.673 2.46617 94.6922C2.45994 94.135 2.15009 93.3769 1.72367 93.0702C0.696475 92.332 0.503689 91.378 0.506429 90.2509C0.510134 88.7475 0.507927 87.2441 0.50572 85.7406C0.501101 82.5947 0.496483 79.4487 0.546032 76.3033C0.559233 75.4582 0.773191 74.2238 1.33909 73.8594C2.51745 73.1005 2.51219 72.1393 2.50635 71.0716C2.50596 71.0007 2.50557 70.9293 2.50552 70.8575C2.50415 68.082 2.49507 65.3063 2.48599 62.5306C2.46384 55.7582 2.44168 48.9856 2.53143 42.2146C2.6871 30.4547 6.95405 20.3523 15.4553 12.1846C23.4034 4.54811 33.0056 0.568345 44.0058 0.555144C104.696 0.482413 165.387 0.486149 226.076 0.53995C246.506 0.557884 264.064 15.8667 267.002 36.0315C267.336 38.3198 267.472 40.6564 267.475 42.9708C267.501 63.5834 267.499 84.1959 267.497 104.808C267.496 110.431 267.496 116.054 267.496 121.677V124.824ZM113.5 24C113.5 22.6193 114.619 21.5 116 21.5H155C156.381 21.5 157.5 22.6193 157.5 24C157.5 25.3807 156.381 26.5 155 26.5H116C114.619 26.5 113.5 25.3807 113.5 24ZM167.5 24C167.5 25.3807 166.381 26.5 165 26.5C163.619 26.5 162.5 25.3807 162.5 24C162.5 22.6193 163.619 21.5 165 21.5C166.381 21.5 167.5 22.6193 167.5 24Z" fill="white"/>
</mask>
<g mask="url(#mask0_736_3992)">
<path fill-rule="evenodd" clip-rule="evenodd" d="M-7 -3H278V542H-7V-3Z" fill="url(#paint0_linear_736_3992)"/>
</g>
<path opacity="0.4" fill-rule="evenodd" clip-rule="evenodd" d="M28.5002 46.6766V485.323C28.554 486.71 28.9384 496.437 29.412 503.555C29.5932 506.279 30.7021 507.946 31.9311 509.793L32.0619 509.989C33.1059 511.561 35.8355 514.5 35.8355 514.5C35.8355 514.5 22.4917 507.953 21.3191 499.045C20.4566 492.492 20.5026 488.065 20.5872 486.182H20.5002V43.1391H20.5473C20.5711 40.7829 20.7411 37.3464 21.3191 32.9553C22.4917 24.0466 35.8355 17.5 35.8355 17.5C35.8355 17.5 33.1059 20.4392 32.0619 22.0108L31.931 22.2075C30.7021 24.0545 29.5932 25.721 29.412 28.445C28.9384 35.5631 28.554 45.2898 28.5002 46.6766Z" fill="url(#paint1_linear_736_3992)"/>
<path opacity="0.4" fill-rule="evenodd" clip-rule="evenodd" d="M241.835 46.5002V482.5C241.782 483.878 241.397 493.546 240.924 500.621C240.742 503.329 239.634 504.985 238.405 506.821L238.274 507.016C237.23 508.579 234.5 511.5 234.5 511.5C234.5 511.5 247.844 504.993 249.017 496.138C249.879 489.625 249.833 485.225 249.748 483.353H249.835V42.9843H249.788C249.765 40.6424 249.595 37.2266 249.017 32.862C247.844 24.0071 234.5 17.5 234.5 17.5C234.5 17.5 237.23 20.4214 238.274 21.9835L238.405 22.1791C239.634 24.0149 240.742 25.6714 240.924 28.379C241.397 35.4535 241.782 45.1207 241.835 46.5002Z" fill="url(#paint2_linear_736_3992)"/>
<defs>
<linearGradient id="paint0_linear_736_3992" x1="-66.6361" y1="262.033" x2="267.531" y2="454.215" gradientUnits="userSpaceOnUse">
<stop stop-color="#ECF0F5"/>
<stop offset="1" stop-color="#CCD6E6"/>
</linearGradient>
<linearGradient id="paint1_linear_736_3992" x1="35.8355" y1="17.5" x2="20.5002" y2="17.5" gradientUnits="userSpaceOnUse">
<stop stop-color="white" stop-opacity="0.01"/>
<stop offset="1" stop-color="white" stop-opacity="0.55"/>
</linearGradient>
<linearGradient id="paint2_linear_736_3992" x1="234.5" y1="17.5" x2="249.835" y2="17.5" gradientUnits="userSpaceOnUse">
<stop stop-color="white" stop-opacity="0.01"/>
<stop offset="1" stop-color="white" stop-opacity="0.55"/>
</linearGradient>
</defs>
</svg>
