<svg width="45" height="45" viewBox="0 0 45 45" fill="none" xmlns="http://www.w3.org/2000/svg">
<rect opacity="0.15" width="45" height="45" rx="11.8868" fill="#5669FF"/>
<rect x="7.10547" y="7.10547" width="30.7895" height="30.7895" rx="10.1887" fill="white"/>
<g clip-path="url(#clip0_991_1326)">
<path d="M28.1248 21.25C28.1248 25.625 22.4998 29.375 22.4998 29.375C22.4998 29.375 16.8748 25.625 16.8748 21.25C16.8748 19.7582 17.4674 18.3274 18.5223 17.2725C19.5772 16.2176 21.0079 15.625 22.4998 15.625C23.9916 15.625 25.4223 16.2176 26.4772 17.2725C27.5321 18.3274 28.1248 19.7582 28.1248 21.25Z" stroke="#5669FF" stroke-width="1.69811" stroke-linecap="round" stroke-linejoin="round"/>
<path d="M22.4995 23.125C23.535 23.125 24.3745 22.2855 24.3745 21.25C24.3745 20.2145 23.535 19.375 22.4995 19.375C21.464 19.375 20.6245 20.2145 20.6245 21.25C20.6245 22.2855 21.464 23.125 22.4995 23.125Z" stroke="#5669FF" stroke-width="1.69811" stroke-linecap="round" stroke-linejoin="round"/>
</g>
<defs>
<clipPath id="clip0_991_1326">
<rect width="15" height="15" fill="white" transform="translate(14.9998 15)"/>
</clipPath>
</defs>
</svg>
