<svg width="23" height="23" viewBox="0 0 23 23" fill="none" xmlns="http://www.w3.org/2000/svg">
<path fill-rule="evenodd" clip-rule="evenodd" d="M11.5288 1.91652C13.6947 1.92611 15.7647 2.78861 17.2788 4.30277C18.8026 5.82652 19.6555 7.88694 19.6459 10.024V10.0719C19.5884 12.9757 17.9592 15.6494 15.9276 17.7386C14.7776 18.9174 13.503 19.9619 12.1134 20.8436C11.7397 21.1599 11.1934 21.1599 10.8197 20.8436C8.75925 19.5019 6.93841 17.8153 5.46258 15.8507C4.16883 14.1449 3.43091 12.094 3.35425 9.95694C3.37341 5.50069 7.03425 1.90694 11.5288 1.91652ZM11.5288 12.7074C12.2093 12.7074 12.8609 12.4486 13.3401 11.979C13.8384 11.4903 14.1173 10.8396 14.1173 10.1582C14.1173 8.73986 12.9567 7.59944 11.5288 7.59944C10.1009 7.59944 8.95092 8.73986 8.95092 10.1582C8.95092 11.5583 10.0818 12.6882 11.5001 12.7074H11.5288Z" fill="#200E32"/>
</svg>
