<svg width="148" height="114" viewBox="0 0 148 114" fill="none" xmlns="http://www.w3.org/2000/svg">
<path d="M3.52531 78.13H18.1553V80.825H6.46531V88.455H17.3153V91.08H6.46531V99.305H18.5053V102H3.52531V78.13ZM20.141 84.395H23.221L27.491 96.82L28.261 99.585H28.296L29.101 96.82L33.651 84.395H36.591L29.766 102H26.616L20.141 84.395ZM52.2841 101.58C51.7475 101.743 51.1875 101.883 50.6041 102C50.0441 102.117 49.4141 102.222 48.7141 102.315C48.0375 102.408 47.3258 102.455 46.5791 102.455C45.4125 102.455 44.3275 102.292 43.3241 101.965C42.3208 101.638 41.4458 101.113 40.6991 100.39C39.9525 99.6667 39.3575 98.7333 38.9141 97.59C38.4941 96.4233 38.2841 95 38.2841 93.32C38.2841 91.8033 38.4941 90.4733 38.9141 89.33C39.3341 88.1633 39.9058 87.195 40.6291 86.425C41.3758 85.6317 42.2391 85.0367 43.2191 84.64C44.2225 84.2433 45.3075 84.045 46.4741 84.045C47.6175 84.045 48.6091 84.2667 49.4491 84.71C50.2891 85.1533 50.9775 85.76 51.5141 86.53C52.0741 87.2767 52.4825 88.1633 52.7391 89.19C53.0191 90.1933 53.1591 91.255 53.1591 92.375L52.6341 93.915H41.3291C41.3291 94.6383 41.4225 95.3617 41.6091 96.085C41.7958 96.8083 42.1108 97.4617 42.5541 98.045C43.0208 98.6283 43.6158 99.1067 44.3391 99.48C45.0858 99.83 46.0075 100.005 47.1041 100.005C47.8041 100.005 48.4458 99.97 49.0291 99.9C49.6125 99.8067 50.1141 99.7133 50.5341 99.62C50.9775 99.5033 51.3858 99.375 51.7591 99.235L52.2841 101.58ZM50.2541 91.675C50.2541 91.5117 50.2191 91.15 50.1491 90.59C50.0791 90.03 49.9158 89.4467 49.6591 88.84C49.4025 88.2333 49.0058 87.6967 48.4691 87.23C47.9325 86.74 47.2208 86.495 46.3341 86.495C45.3541 86.495 44.5491 86.705 43.9191 87.125C43.2891 87.5217 42.7875 88 42.4141 88.56C42.0408 89.12 41.7841 89.6917 41.6441 90.275C41.5041 90.8583 41.4341 91.325 41.4341 91.675H50.2541ZM57.0042 87.895C57.0276 87.405 56.9692 86.3433 56.8292 84.71L59.4192 84.36L59.8042 86.6C60.5042 86.1333 61.1926 85.725 61.8692 85.375C62.5692 85.025 63.2809 84.7217 64.0042 84.465C64.7276 84.185 65.4276 84.045 66.1042 84.045C67.0609 84.045 67.8542 84.1617 68.4842 84.395C69.1376 84.605 69.6626 84.9667 70.0592 85.48C70.4559 85.9933 70.7359 86.67 70.8992 87.51C71.0859 88.35 71.1792 89.4 71.1792 90.66V102H68.3792V90.975C68.3792 90.275 68.3676 89.6567 68.3442 89.12C68.3209 88.56 68.2159 88.0933 68.0292 87.72C67.8659 87.3233 67.5976 87.02 67.2242 86.81C66.8742 86.6 66.3726 86.495 65.7192 86.495C65.1126 86.495 64.4709 86.635 63.7942 86.915C63.1176 87.1717 62.4526 87.475 61.7992 87.825C61.1459 88.175 60.4809 88.5833 59.8042 89.05V102H57.0042V87.895ZM80.2048 79.145V84.395H85.2798V86.67H80.2048V96.015C80.2048 96.785 80.2165 97.4267 80.2398 97.94C80.2865 98.4533 80.3682 98.8617 80.4848 99.165C80.6015 99.4683 80.7648 99.69 80.9748 99.83C81.1848 99.9467 81.4532 100.005 81.7798 100.005C82.6665 99.9817 83.6932 99.655 84.8598 99.025L85.6998 101.16C84.9298 101.673 84.2065 102.012 83.5298 102.175C82.8765 102.362 82.2232 102.455 81.5698 102.455C80.0298 102.455 78.9448 102.023 78.3148 101.16C77.7082 100.273 77.4048 98.815 77.4048 96.785V86.67H74.1848V84.395H77.4048V79.495L80.2048 79.145ZM89.4189 78.13H92.3589V88.455H104.434V78.13H107.374V102H104.434V91.08H92.3589V102H89.4189V78.13ZM123.354 100.075H123.284C123.074 100.238 122.77 100.46 122.374 100.74C121.977 100.997 121.522 101.253 121.009 101.51C120.495 101.767 119.924 101.988 119.294 102.175C118.687 102.362 118.069 102.455 117.439 102.455C116.575 102.455 115.84 102.338 115.234 102.105C114.627 101.895 114.137 101.533 113.764 101.02C113.39 100.507 113.122 99.83 112.959 98.99C112.795 98.15 112.714 97.1 112.714 95.84V84.395H115.514V95.42C115.514 96.12 115.525 96.75 115.549 97.31C115.572 97.87 115.654 98.3483 115.794 98.745C115.934 99.1417 116.155 99.4567 116.459 99.69C116.785 99.9 117.24 100.005 117.824 100.005C118.43 100.005 119.06 99.8767 119.714 99.62C120.367 99.3633 120.962 99.0717 121.499 98.745C122.129 98.3717 122.747 97.9517 123.354 97.485V84.395H126.154V99.725C126.177 100.565 126.235 101.323 126.329 102L123.564 102.28L123.354 100.075ZM131.207 75.785L134.007 75.47V85.9C134.52 85.55 135.057 85.2467 135.617 84.99C136.083 84.7567 136.608 84.5467 137.192 84.36C137.775 84.15 138.358 84.045 138.942 84.045C139.898 84.045 140.797 84.2317 141.637 84.605C142.5 84.9783 143.247 85.5383 143.877 86.285C144.53 87.0317 145.043 87.9767 145.417 89.12C145.79 90.2633 145.977 91.6167 145.977 93.18C145.977 94.9067 145.732 96.365 145.242 97.555C144.775 98.7217 144.133 99.6667 143.317 100.39C142.523 101.113 141.613 101.638 140.587 101.965C139.56 102.292 138.51 102.455 137.437 102.455C136.363 102.455 135.43 102.373 134.637 102.21C133.867 102.07 133.225 101.907 132.712 101.72C132.105 101.487 131.603 101.23 131.207 100.95V75.785ZM134.007 99.41C134.31 99.5267 134.637 99.6317 134.987 99.725C135.337 99.795 135.71 99.865 136.107 99.935C136.527 99.9817 136.97 100.005 137.437 100.005C138.51 100.005 139.408 99.8533 140.132 99.55C140.855 99.2467 141.427 98.8033 141.847 98.22C142.267 97.6367 142.558 96.9367 142.722 96.12C142.908 95.28 143.002 94.3467 143.002 93.32C143.002 92.5033 142.908 91.6867 142.722 90.87C142.558 90.0533 142.29 89.33 141.917 88.7C141.543 88.0467 141.077 87.5217 140.517 87.125C139.98 86.705 139.35 86.495 138.627 86.495C138.137 86.495 137.623 86.6 137.087 86.81C136.55 86.9967 136.048 87.2183 135.582 87.475C135.045 87.755 134.52 88.07 134.007 88.42V99.41Z" fill="#37364A"/>
<path d="M89.4647 34.9356L89.5796 34.9931C92.2515 36.4871 93.2858 39.8485 91.878 42.5491C86.9939 51.8863 77.1683 58.2644 65.8774 58.1782C50.1334 58.0633 37.2336 45.2497 37.0038 29.5057C36.7452 13.2445 49.8461 0 66.0785 0C75.2434 0 83.4314 4.25204 88.7464 10.8887L78.3462 16.5197C75.0135 13.2732 70.388 11.3196 65.3315 11.5207C56.0517 11.8942 48.5819 19.5651 48.467 28.8736C48.3521 38.6993 56.2816 46.6862 66.0498 46.6862C72.83 46.6862 78.7197 42.8651 81.6501 37.234C83.1441 34.4185 86.6779 33.3842 89.4647 34.9356Z" fill="#5669FF"/>
<path d="M91.9643 15.8301C93.2571 18.3584 92.3378 21.4612 89.8383 22.8403L83.4602 26.374L67.6587 35.1367C65.188 36.5157 62.0851 35.8262 60.4188 33.5278L60.3613 33.4416C58.379 30.7123 59.2408 26.8337 62.2288 25.2248L78.375 16.4909L88.7753 10.8599C89.9819 12.4113 91.0449 14.0776 91.9643 15.8301Z" fill="#00F8FF"/>
</svg>
