<svg width="242" height="58" viewBox="0 0 242 58" fill="none" xmlns="http://www.w3.org/2000/svg">
<path d="M56.45 23.365H60.41L65.9 39.34L66.89 42.895H66.935L67.97 39.34L73.82 23.365H77.6L68.825 46H64.775L56.45 23.365ZM97.7769 45.46C97.0869 45.67 96.3669 45.85 95.6169 46C94.8969 46.15 94.0869 46.285 93.1869 46.405C92.3169 46.525 91.4019 46.585 90.4419 46.585C88.9419 46.585 87.5469 46.375 86.2569 45.955C84.9669 45.535 83.8419 44.86 82.8819 43.93C81.9219 43 81.1569 41.8 80.5869 40.33C80.0469 38.83 79.7769 37 79.7769 34.84C79.7769 32.89 80.0469 31.18 80.5869 29.71C81.1269 28.21 81.8619 26.965 82.7919 25.975C83.7519 24.955 84.8619 24.19 86.1219 23.68C87.4119 23.17 88.8069 22.915 90.3069 22.915C91.7769 22.915 93.0519 23.2 94.1319 23.77C95.2119 24.34 96.0969 25.12 96.7869 26.11C97.5069 27.07 98.0319 28.21 98.3619 29.53C98.7219 30.82 98.9019 32.185 98.9019 33.625L98.2269 35.605H83.6919C83.6919 36.535 83.8119 37.465 84.0519 38.395C84.2919 39.325 84.6969 40.165 85.2669 40.915C85.8669 41.665 86.6319 42.28 87.5619 42.76C88.5219 43.21 89.7069 43.435 91.1169 43.435C92.0169 43.435 92.8419 43.39 93.5919 43.3C94.3419 43.18 94.9869 43.06 95.5269 42.94C96.0969 42.79 96.6219 42.625 97.1019 42.445L97.7769 45.46ZM95.1669 32.725C95.1669 32.515 95.1219 32.05 95.0319 31.33C94.9419 30.61 94.7319 29.86 94.4019 29.08C94.0719 28.3 93.5619 27.61 92.8719 27.01C92.1819 26.38 91.2669 26.065 90.1269 26.065C88.8669 26.065 87.8319 26.335 87.0219 26.875C86.2119 27.385 85.5669 28 85.0869 28.72C84.6069 29.44 84.2769 30.175 84.0969 30.925C83.9169 31.675 83.8269 32.275 83.8269 32.725H95.1669ZM103.846 27.865C103.876 27.235 103.801 25.87 103.621 23.77L106.951 23.32L107.446 26.2C108.346 25.6 109.231 25.075 110.101 24.625C111.001 24.175 111.916 23.785 112.846 23.455C113.776 23.095 114.676 22.915 115.546 22.915C116.776 22.915 117.796 23.065 118.606 23.365C119.446 23.635 120.121 24.1 120.631 24.76C121.141 25.42 121.501 26.29 121.711 27.37C121.951 28.45 122.071 29.8 122.071 31.42V46H118.471V31.825C118.471 30.925 118.456 30.13 118.426 29.44C118.396 28.72 118.261 28.12 118.021 27.64C117.811 27.13 117.466 26.74 116.986 26.47C116.536 26.2 115.891 26.065 115.051 26.065C114.271 26.065 113.446 26.245 112.576 26.605C111.706 26.935 110.851 27.325 110.011 27.775C109.171 28.225 108.316 28.75 107.446 29.35V46H103.846V27.865ZM133.675 16.615V23.365H140.2V26.29H133.675V38.305C133.675 39.295 133.69 40.12 133.72 40.78C133.78 41.44 133.885 41.965 134.035 42.355C134.185 42.745 134.395 43.03 134.665 43.21C134.935 43.36 135.28 43.435 135.7 43.435C136.84 43.405 138.16 42.985 139.66 42.175L140.74 44.92C139.75 45.58 138.82 46.015 137.95 46.225C137.11 46.465 136.27 46.585 135.43 46.585C133.45 46.585 132.055 46.03 131.245 44.92C130.465 43.78 130.075 41.905 130.075 39.295V26.29H125.935V23.365H130.075V17.065L133.675 16.615Z" fill="#5669FF"/>
<path d="M145.522 15.31H149.302V28.585H164.827V15.31H168.607V46H164.827V31.96H149.302V46H145.522V15.31ZM189.152 43.525H189.062C188.792 43.735 188.402 44.02 187.892 44.38C187.382 44.71 186.797 45.04 186.137 45.37C185.477 45.7 184.742 45.985 183.932 46.225C183.152 46.465 182.357 46.585 181.547 46.585C180.437 46.585 179.492 46.435 178.712 46.135C177.932 45.865 177.302 45.4 176.822 44.74C176.342 44.08 175.997 43.21 175.787 42.13C175.577 41.05 175.472 39.7 175.472 38.08V23.365H179.072V37.54C179.072 38.44 179.087 39.25 179.117 39.97C179.147 40.69 179.252 41.305 179.432 41.815C179.612 42.325 179.897 42.73 180.287 43.03C180.707 43.3 181.292 43.435 182.042 43.435C182.822 43.435 183.632 43.27 184.472 42.94C185.312 42.61 186.077 42.235 186.767 41.815C187.577 41.335 188.372 40.795 189.152 40.195V23.365H192.752V43.075C192.782 44.155 192.857 45.13 192.977 46L189.422 46.36L189.152 43.525ZM199.249 12.295L202.849 11.89V25.3C203.509 24.85 204.199 24.46 204.919 24.13C205.519 23.83 206.194 23.56 206.944 23.32C207.694 23.05 208.444 22.915 209.194 22.915C210.424 22.915 211.579 23.155 212.659 23.635C213.769 24.115 214.729 24.835 215.539 25.795C216.379 26.755 217.039 27.97 217.519 29.44C217.999 30.91 218.239 32.65 218.239 34.66C218.239 36.88 217.924 38.755 217.294 40.285C216.694 41.785 215.869 43 214.819 43.93C213.799 44.86 212.629 45.535 211.309 45.955C209.989 46.375 208.639 46.585 207.259 46.585C205.879 46.585 204.679 46.48 203.659 46.27C202.669 46.09 201.844 45.88 201.184 45.64C200.404 45.34 199.759 45.01 199.249 44.65V12.295ZM202.849 42.67C203.239 42.82 203.659 42.955 204.109 43.075C204.559 43.165 205.039 43.255 205.549 43.345C206.089 43.405 206.659 43.435 207.259 43.435C208.639 43.435 209.794 43.24 210.724 42.85C211.654 42.46 212.389 41.89 212.929 41.14C213.469 40.39 213.844 39.49 214.054 38.44C214.294 37.36 214.414 36.16 214.414 34.84C214.414 33.79 214.294 32.74 214.054 31.69C213.844 30.64 213.499 29.71 213.019 28.9C212.539 28.06 211.939 27.385 211.219 26.875C210.529 26.335 209.719 26.065 208.789 26.065C208.159 26.065 207.499 26.2 206.809 26.47C206.119 26.71 205.474 26.995 204.874 27.325C204.184 27.685 203.509 28.09 202.849 28.54V42.67Z" fill="#00F8FF"/>
<path d="M45.2513 30.1323L45.3504 30.1819C47.655 31.4704 48.547 34.3697 47.3328 36.699C43.1202 44.7525 34.6455 50.2536 24.907 50.1793C11.3276 50.0801 0.201484 39.0283 0.00324541 25.4489C-0.219774 11.4235 11.0799 0 25.0805 0C32.9853 0 40.0475 3.66742 44.6318 9.39157L35.6615 14.2484C32.787 11.4483 28.7975 9.76327 24.4362 9.93673C16.4323 10.2589 9.98954 16.8751 9.89042 24.9038C9.7913 33.3785 16.6305 40.2673 25.0557 40.2673C30.9038 40.2673 35.9836 36.9716 38.5112 32.1147C39.7997 29.6863 42.8477 28.7942 45.2513 30.1323Z" fill="#5669FF"/>
<path d="M47.4072 13.6536C48.5223 15.8342 47.7293 18.5105 45.5735 19.6999L40.0723 22.7478L26.4434 30.3057C24.3123 31.4951 21.6361 30.9004 20.1989 28.918L20.1493 28.8437C18.4395 26.4896 19.1829 23.1443 21.76 21.7566L35.6863 14.2236L44.6566 9.3667C45.6974 10.7048 46.6142 12.142 47.4072 13.6536Z" fill="#00F8FF"/>
</svg>
