<svg width="30" height="30" viewBox="0 0 30 30" fill="none" xmlns="http://www.w3.org/2000/svg">
<path d="M14.3146 4.42774C14.1219 3.15887 13.7322 1.87442 13.1646 0.619385C10.2172 1.03385 7.54929 2.31824 5.42871 4.20505L12.7547 11.5311C14.1861 9.71082 14.7393 7.22451 14.3146 4.42774Z" fill="white"/>
<path d="M12.7626 13.9861C11.0129 15.4308 8.76184 16.1855 6.23268 16.1856C5.5626 16.1856 4.87325 16.1326 4.16834 16.0256C2.93684 15.8386 1.69547 15.4877 0.477236 14.9872C0.475909 15.0711 0.474121 15.1549 0.474121 15.2392C0.474121 19.0052 1.88482 22.4411 4.20554 25.0494L14.0157 15.2392L12.7626 13.9861Z" fill="white"/>
<path d="M11.5319 12.7535L4.20579 5.42749C2.31897 7.54807 1.03458 10.2159 0.620117 13.1634C1.87521 13.731 3.15971 14.1207 4.42842 14.3134C7.22536 14.7382 9.71161 14.1849 11.5319 12.7535Z" fill="white"/>
<path d="M26.0507 16.1624C23.2539 15.7375 20.7675 16.2909 18.9473 17.7222L26.2733 25.0483C28.1601 22.9277 29.4445 20.2599 29.859 17.3124C28.604 16.7449 27.3196 16.3551 26.0507 16.1624Z" fill="white"/>
<path d="M16.4917 17.715L15.2389 16.4622L5.42871 26.2724C8.037 28.5931 11.4729 30.0038 15.2389 30.0038C15.3232 30.0038 15.407 30.002 15.4909 30.0006C14.9904 28.7824 14.6395 27.541 14.4525 26.3095C13.9415 22.944 14.6643 19.9281 16.4917 17.715Z" fill="white"/>
<path d="M13.9863 12.7622L15.2392 14.015L25.0494 4.2048C22.4411 1.88403 19.0051 0.473389 15.2392 0.473389C15.1549 0.473389 15.071 0.475177 14.9871 0.476561C15.4876 1.69474 15.8385 2.93599 16.0256 4.16766C16.5366 7.53312 15.8137 10.549 13.9863 12.7622Z" fill="white"/>
<path d="M16.1633 26.0492C16.3559 27.3179 16.7458 28.6025 17.3133 29.8576C20.2608 29.4431 22.9286 28.1587 25.0492 26.2719L17.7231 18.9458C16.2918 20.7661 15.7386 23.2524 16.1633 26.0492Z" fill="white"/>
<path d="M17.7157 16.4906C19.9289 14.6631 22.9448 13.9403 26.3102 14.4513C27.5419 14.6384 28.7832 14.9893 30.0013 15.4898C30.0027 15.4059 30.0045 15.322 30.0045 15.2377C30.0045 11.4717 28.5938 8.03578 26.2731 5.42749L16.4629 15.2377L17.7157 16.4906Z" fill="white"/>
</svg>
